<svg width="91" height="16" viewBox="0 0 91 16" fill="none" xmlns="http://www.w3.org/2000/svg">
<path d="M1.86 15V7.12H0.48V5.08H1.86V4.44C1.86 3.57333 2 2.82667 2.28 2.2C2.57333 1.56 2.98 1.06667 3.5 0.719999C4.03333 0.373333 4.65333 0.2 5.36 0.2C5.78667 0.2 6.21333 0.253333 6.64 0.359999C7.08 0.466666 7.51333 0.619999 7.94 0.819999L7.4 2.84C7.2 2.73333 6.96667 2.64667 6.7 2.58C6.43333 2.5 6.18 2.46 5.94 2.46C5.48667 2.46 5.14 2.62 4.9 2.94C4.66 3.26 4.54 3.72667 4.54 4.34V5.08H7.1V7.12H4.54V15H1.86ZM7.84375 11.9C7.84375 11.22 8.03042 10.6267 8.40375 10.12C8.79042 9.6 9.32375 9.2 10.0038 8.92C10.6838 8.64 11.4638 8.5 12.3438 8.5C12.7838 8.5 13.2304 8.53333 13.6838 8.6C14.1371 8.66667 14.5304 8.77333 14.8638 8.92V8.36C14.8638 7.69333 14.6638 7.18 14.2638 6.82C13.8771 6.46 13.2971 6.28 12.5238 6.28C11.9504 6.28 11.4038 6.38 10.8838 6.58C10.3638 6.78 9.81708 7.07333 9.24375 7.46L8.38375 5.7C9.07708 5.24667 9.78375 4.90667 10.5038 4.68C11.2371 4.45333 12.0038 4.34 12.8038 4.34C14.2971 4.34 15.4571 4.71333 16.2838 5.46C17.1238 6.20667 17.5438 7.27333 17.5438 8.66V12C17.5438 12.28 17.5904 12.48 17.6838 12.6C17.7904 12.72 17.9571 12.7933 18.1838 12.82V15C17.9438 15.04 17.7238 15.0733 17.5238 15.1C17.3371 15.1267 17.1771 15.14 17.0438 15.14C16.5104 15.14 16.1038 15.02 15.8238 14.78C15.5571 14.54 15.3904 14.2467 15.3238 13.9L15.2638 13.36C14.8104 13.9467 14.2438 14.4 13.5638 14.72C12.8838 15.04 12.1904 15.2 11.4838 15.2C10.7904 15.2 10.1638 15.06 9.60375 14.78C9.05708 14.4867 8.62375 14.0933 8.30375 13.6C7.99708 13.0933 7.84375 12.5267 7.84375 11.9ZM14.3638 12.44C14.5104 12.28 14.6304 12.12 14.7238 11.96C14.8171 11.8 14.8638 11.6533 14.8638 11.52V10.46C14.5438 10.3267 14.1971 10.2267 13.8238 10.16C13.4504 10.08 13.0971 10.04 12.7638 10.04C12.0704 10.04 11.4971 10.1933 11.0438 10.5C10.6038 10.7933 10.3838 11.1867 10.3838 11.68C10.3838 11.9467 10.4571 12.2 10.6038 12.44C10.7504 12.68 10.9638 12.8733 11.2438 13.02C11.5238 13.1667 11.8571 13.24 12.2438 13.24C12.6438 13.24 13.0371 13.1667 13.4238 13.02C13.8104 12.86 14.1238 12.6667 14.3638 12.44ZM24.9281 15.2C24.0748 15.2 23.3081 15.06 22.6281 14.78C21.9481 14.4867 21.3681 14.0867 20.8881 13.58C20.4081 13.06 20.0348 12.4733 19.7681 11.82C19.5148 11.1667 19.3881 10.48 19.3881 9.76C19.3881 8.77333 19.6081 7.87333 20.0481 7.06C20.5015 6.23333 21.1415 5.57333 21.9681 5.08C22.7948 4.58667 23.7748 4.34 24.9081 4.34C26.0415 4.34 27.0148 4.58667 27.8281 5.08C28.6415 5.57333 29.2481 6.22 29.6481 7.02L27.0281 7.82C26.8015 7.43333 26.5015 7.14 26.1281 6.94C25.7548 6.72667 25.3415 6.62 24.8881 6.62C24.3815 6.62 23.9148 6.75333 23.4881 7.02C23.0748 7.27333 22.7481 7.64 22.5081 8.12C22.2681 8.58667 22.1481 9.13333 22.1481 9.76C22.1481 10.3733 22.2681 10.92 22.5081 11.4C22.7615 11.8667 23.0948 12.24 23.5081 12.52C23.9215 12.7867 24.3815 12.92 24.8881 12.92C25.2081 12.92 25.5081 12.8667 25.7881 12.76C26.0815 12.6533 26.3415 12.5067 26.5681 12.32C26.7948 12.1333 26.9615 11.92 27.0681 11.68L29.6881 12.48C29.4481 13 29.0948 13.4667 28.6281 13.88C28.1748 14.2933 27.6348 14.62 27.0081 14.86C26.3948 15.0867 25.7015 15.2 24.9281 15.2ZM36.0995 15.2C35.2595 15.2 34.4995 15.06 33.8195 14.78C33.1395 14.4867 32.5595 14.0933 32.0795 13.6C31.5995 13.0933 31.2262 12.52 30.9595 11.88C30.7062 11.2267 30.5795 10.54 30.5795 9.82C30.5795 8.82 30.7995 7.90667 31.2395 7.08C31.6929 6.25333 32.3329 5.59333 33.1595 5.1C33.9995 4.59333 34.9862 4.34 36.1195 4.34C37.2662 4.34 38.2462 4.59333 39.0595 5.1C39.8729 5.59333 40.4929 6.25333 40.9195 7.08C41.3595 7.89333 41.5795 8.77333 41.5795 9.72C41.5795 9.88 41.5729 10.0467 41.5595 10.22C41.5462 10.38 41.5329 10.5133 41.5195 10.62H33.4195C33.4729 11.1533 33.6262 11.62 33.8795 12.02C34.1462 12.42 34.4795 12.7267 34.8795 12.94C35.2929 13.14 35.7329 13.24 36.1995 13.24C36.7329 13.24 37.2329 13.1133 37.6995 12.86C38.1795 12.5933 38.5062 12.2467 38.6795 11.82L40.9795 12.46C40.7262 12.9933 40.3595 13.4667 39.8795 13.88C39.4129 14.2933 38.8595 14.62 38.2195 14.86C37.5795 15.0867 36.8729 15.2 36.0995 15.2ZM33.3595 8.92H38.8395C38.7862 8.38667 38.6329 7.92667 38.3795 7.54C38.1395 7.14 37.8195 6.83333 37.4195 6.62C37.0195 6.39333 36.5729 6.28 36.0795 6.28C35.5995 6.28 35.1595 6.39333 34.7595 6.62C34.3729 6.83333 34.0529 7.14 33.7995 7.54C33.5595 7.92667 33.4129 8.38667 33.3595 8.92ZM49.1722 15.2C48.3722 15.2 47.6589 15.02 47.0322 14.66C46.4055 14.3 45.9122 13.8067 45.5522 13.18V15H43.2122V0.4H45.8922V6.36C46.2655 5.73333 46.7522 5.24 47.3522 4.88C47.9655 4.52 48.6789 4.34 49.4922 4.34C50.1722 4.34 50.7922 4.48667 51.3522 4.78C51.9122 5.06 52.3922 5.45333 52.7922 5.96C53.2055 6.46667 53.5189 7.04667 53.7322 7.7C53.9589 8.35333 54.0722 9.05333 54.0722 9.8C54.0722 10.5467 53.9455 11.2467 53.6922 11.9C53.4522 12.5533 53.1122 13.1333 52.6722 13.64C52.2322 14.1333 51.7122 14.52 51.1122 14.8C50.5255 15.0667 49.8789 15.2 49.1722 15.2ZM48.4322 12.92C48.8589 12.92 49.2455 12.84 49.5922 12.68C49.9522 12.5067 50.2589 12.28 50.5122 12C50.7789 11.72 50.9789 11.3933 51.1122 11.02C51.2589 10.6333 51.3322 10.2333 51.3322 9.82C51.3322 9.24667 51.2122 8.72 50.9722 8.24C50.7455 7.74667 50.4255 7.35333 50.0122 7.06C49.6122 6.76667 49.1389 6.62 48.5922 6.62C48.2055 6.62 47.8322 6.71333 47.4722 6.9C47.1255 7.07333 46.8122 7.31333 46.5322 7.62C46.2655 7.92667 46.0522 8.27333 45.8922 8.66V11.16C45.9722 11.4267 46.0989 11.6667 46.2722 11.88C46.4589 12.0933 46.6722 12.28 46.9122 12.44C47.1522 12.5867 47.3989 12.7067 47.6522 12.8C47.9189 12.88 48.1789 12.92 48.4322 12.92ZM60.728 15.2C59.8746 15.2 59.108 15.06 58.428 14.78C57.748 14.4867 57.168 14.0867 56.688 13.58C56.2213 13.0733 55.8613 12.4933 55.608 11.84C55.3546 11.1867 55.228 10.5 55.228 9.78C55.228 9.04667 55.3546 8.35333 55.608 7.7C55.8613 7.04667 56.2213 6.46667 56.688 5.96C57.168 5.45333 57.748 5.06 58.428 4.78C59.108 4.48667 59.8746 4.34 60.728 4.34C61.5813 4.34 62.3413 4.48667 63.008 4.78C63.688 5.06 64.268 5.45333 64.748 5.96C65.228 6.46667 65.588 7.04667 65.828 7.7C66.0813 8.35333 66.208 9.04667 66.208 9.78C66.208 10.5 66.0813 11.1867 65.828 11.84C65.588 12.4933 65.228 13.0733 64.748 13.58C64.2813 14.0867 63.708 14.4867 63.028 14.78C62.348 15.06 61.5813 15.2 60.728 15.2ZM57.988 9.78C57.988 10.3933 58.108 10.94 58.348 11.42C58.588 11.8867 58.9146 12.2533 59.328 12.52C59.7413 12.7867 60.208 12.92 60.728 12.92C61.2346 12.92 61.6946 12.7867 62.108 12.52C62.5213 12.24 62.848 11.8667 63.088 11.4C63.3413 10.92 63.468 10.3733 63.468 9.76C63.468 9.16 63.3413 8.62 63.088 8.14C62.848 7.66 62.5213 7.28667 62.108 7.02C61.6946 6.75333 61.2346 6.62 60.728 6.62C60.208 6.62 59.7413 6.76 59.328 7.04C58.9146 7.30667 58.588 7.68 58.348 8.16C58.108 8.62667 57.988 9.16667 57.988 9.78ZM72.8569 15.2C72.0035 15.2 71.2369 15.06 70.5569 14.78C69.8769 14.4867 69.2969 14.0867 68.8169 13.58C68.3502 13.0733 67.9902 12.4933 67.7369 11.84C67.4835 11.1867 67.3569 10.5 67.3569 9.78C67.3569 9.04667 67.4835 8.35333 67.7369 7.7C67.9902 7.04667 68.3502 6.46667 68.8169 5.96C69.2969 5.45333 69.8769 5.06 70.5569 4.78C71.2369 4.48667 72.0035 4.34 72.8569 4.34C73.7102 4.34 74.4702 4.48667 75.1369 4.78C75.8169 5.06 76.3969 5.45333 76.8769 5.96C77.3569 6.46667 77.7169 7.04667 77.9569 7.7C78.2102 8.35333 78.3369 9.04667 78.3369 9.78C78.3369 10.5 78.2102 11.1867 77.9569 11.84C77.7169 12.4933 77.3569 13.0733 76.8769 13.58C76.4102 14.0867 75.8369 14.4867 75.1569 14.78C74.4769 15.06 73.7102 15.2 72.8569 15.2ZM70.1169 9.78C70.1169 10.3933 70.2369 10.94 70.4769 11.42C70.7169 11.8867 71.0435 12.2533 71.4569 12.52C71.8702 12.7867 72.3369 12.92 72.8569 12.92C73.3635 12.92 73.8235 12.7867 74.2369 12.52C74.6502 12.24 74.9769 11.8667 75.2169 11.4C75.4702 10.92 75.5969 10.3733 75.5969 9.76C75.5969 9.16 75.4702 8.62 75.2169 8.14C74.9769 7.66 74.6502 7.28667 74.2369 7.02C73.8235 6.75333 73.3635 6.62 72.8569 6.62C72.3369 6.62 71.8702 6.76 71.4569 7.04C71.0435 7.30667 70.7169 7.68 70.4769 8.16C70.2369 8.62667 70.1169 9.16667 70.1169 9.78ZM87.3058 15L84.2458 10.48L82.8258 11.88V15H80.1458V0.4H82.8258V9.24L87.0458 4.54H89.8858L85.9858 8.98L90.1658 15H87.3058Z" fill="url(#paint0_linear_84_1482)"/>
<defs>
<linearGradient id="paint0_linear_84_1482" x1="-7.26219e-06" y1="-8.18181" x2="90.6233" y2="23.8975" gradientUnits="userSpaceOnUse">
<stop stop-color="#384CFF"/>
<stop offset="1" stop-color="#00A3FF"/>
</linearGradient>
</defs>
</svg>
